REM DIRINDEX 1\2,1\3,1\4,1\5,1\6
REM DIRNAME cjc129,folder01,folder02,folder03,folder04,folder05
TITLE ""
FILE "DISC2Track11.mp3" MP3
  TRACK 01 AUDIO
    TITLE "0:"
    INDEX 01 00:00:00
  TRACK 02 AUDIO
    TITLE "3:cjc129_1246"
    INDEX 01 00:00:07
  TRACK 03 AUDIO
    TITLE "0:"
    INDEX 01 00:01:46
  TRACK 04 AUDIO
    TITLE "5:cjc129_1247"
    INDEX 01 00:02:02
  TRACK 05 AUDIO
    TITLE "0:"
    INDEX 01 00:03:61
  TRACK 06 AUDIO
    TITLE "4:cjc129_1248"
    INDEX 01 00:04:52
  TRACK 07 AUDIO
    TITLE "0:"
    INDEX 01 00:06:16
  TRACK 08 AUDIO
    TITLE "6:cjc129_1249"
    INDEX 01 00:06:51
  TRACK 09 AUDIO
    TITLE "0:"
    INDEX 01 00:11:50
  TRACK 10 AUDIO
    TITLE "3:cjc129_1250"
    INDEX 01 00:13:30
  TRACK 11 AUDIO
    TITLE "0:"
    INDEX 01 00:15:09
  TRACK 12 AUDIO
    TITLE "5:cjc129_1251"
    INDEX 01 00:15:42
  TRACK 13 AUDIO
    TITLE "0:"
    INDEX 01 00:17:33
  TRACK 14 AUDIO
    TITLE "4:cjc129_1252"
    INDEX 01 00:18:23
  TRACK 15 AUDIO
    TITLE "0:"
    INDEX 01 00:20:04
  TRACK 16 AUDIO
    TITLE "6:cjc129_1253"
    INDEX 01 00:20:36
  TRACK 17 AUDIO
    TITLE "0:"
    INDEX 01 00:27:67
  TRACK 18 AUDIO
    TITLE "3:cjc129_1254"
    INDEX 01 00:29:44
  TRACK 19 AUDIO
    TITLE "0:"
    INDEX 01 00:30:67
  TRACK 20 AUDIO
    TITLE "5:cjc129_1255"
    INDEX 01 00:31:24
  TRACK 21 AUDIO
    TITLE "0:"
    INDEX 01 00:34:16
  TRACK 22 AUDIO
    TITLE "4:cjc129_1256"
    INDEX 01 00:35:04
  TRACK 23 AUDIO
    TITLE "0:"
    INDEX 01 00:36:25
  TRACK 24 AUDIO
    TITLE "6:cjc129_1257"
    INDEX 01 00:36:60
  TRACK 25 AUDIO
    TITLE "0:"
    INDEX 01 00:41:40
  TRACK 26 AUDIO
    TITLE "3:cjc129_1258"
    INDEX 01 00:43:17
  TRACK 27 AUDIO
    TITLE "0:"
    INDEX 01 00:44:36
  TRACK 28 AUDIO
    TITLE "5:cjc129_1259"
    INDEX 01 00:44:67
  TRACK 29 AUDIO
    TITLE "0:"
    INDEX 01 00:47:58
  TRACK 30 AUDIO
    TITLE "4:cjc129_1260"
    INDEX 01 00:48:48
  TRACK 31 AUDIO
    TITLE "0:"
    INDEX 01 00:49:69
  TRACK 32 AUDIO
    TITLE "6:cjc129_1261"
    INDEX 01 00:50:27
  TRACK 33 AUDIO
    TITLE "0:"
    INDEX 01 00:54:52
  TRACK 34 AUDIO
    TITLE "3:cjc129_1262"
    INDEX 01 00:56:29
  TRACK 35 AUDIO
    TITLE "0:"
    INDEX 01 00:57:60
  TRACK 36 AUDIO
    TITLE "5:cjc129_1263"
    INDEX 01 00:58:20
  TRACK 37 AUDIO
    TITLE "0:"
    INDEX 01 01:00:70
  TRACK 38 AUDIO
    TITLE "4:cjc129_1264"
    INDEX 01 01:01:60
  TRACK 39 AUDIO
    TITLE "0:"
    INDEX 01 01:03:18
  TRACK 40 AUDIO
    TITLE "6:cjc129_1265"
    INDEX 01 01:03:51
  TRACK 41 AUDIO
    TITLE "0:"
    INDEX 01 01:08:36
  TRACK 42 AUDIO
    TITLE "3:cjc129_1266"
    INDEX 01 01:10:12
  TRACK 43 AUDIO
    TITLE "0:"
    INDEX 01 01:13:40
  TRACK 44 AUDIO
    TITLE "5:cjc129_1267"
    INDEX 01 01:13:73
  TRACK 45 AUDIO
    TITLE "0:"
    INDEX 01 01:16:52
  TRACK 46 AUDIO
    TITLE "4:cjc129_1268"
    INDEX 01 01:17:41
  TRACK 47 AUDIO
    TITLE "0:"
    INDEX 01 01:20:69
  TRACK 48 AUDIO
    TITLE "6:cjc129_1269"
    INDEX 01 01:21:25
  TRACK 49 AUDIO
    TITLE "0:"
    INDEX 01 01:25:58
  TRACK 50 AUDIO
    TITLE "3:cjc129_1270"
    INDEX 01 01:27:32
  TRACK 51 AUDIO
    TITLE "0:"
    INDEX 01 01:28:57
  TRACK 52 AUDIO
    TITLE "5:cjc129_1271"
    INDEX 01 01:29:15
  TRACK 53 AUDIO
    TITLE "0:"
    INDEX 01 01:31:38
  TRACK 54 AUDIO
    TITLE "4:cjc129_1272"
    INDEX 01 01:32:27
  TRACK 55 AUDIO
    TITLE "0:"
    INDEX 01 01:33:52
  TRACK 56 AUDIO
    TITLE "6:cjc129_1273"
    INDEX 01 01:34:10
  TRACK 57 AUDIO
    TITLE "0:"
    INDEX 01 01:38:73
  TRACK 58 AUDIO
    TITLE "3:cjc129_1274"
    INDEX 01 01:40:52
  TRACK 59 AUDIO
    TITLE "0:"
    INDEX 01 01:42:16
  TRACK 60 AUDIO
    TITLE "5:cjc129_1275"
    INDEX 01 01:42:47
  TRACK 61 AUDIO
    TITLE "0:"
    INDEX 01 01:43:64
  TRACK 62 AUDIO
    TITLE "4:cjc129_1276"
    INDEX 01 01:44:56
  TRACK 63 AUDIO
    TITLE "0:"
    INDEX 01 01:46:18
  TRACK 64 AUDIO
    TITLE "6:cjc129_1277"
    INDEX 01 01:46:51
  TRACK 65 AUDIO
    TITLE "0:"
    INDEX 01 01:51:09
